<?xml version="1.0" standalone="no"?>
<!DOCTYPE svg PUBLIC "-//W3C//DTD SVG 1.1//EN" "http://www.w3.org/Graphics/SVG/1.1/DTD/svg11.dtd">
<svg
  width="3840px"
  height="2160px"
  version="1.1"
  xmlns="http://www.w3.org/2000/svg"
  xmlns:xlink="http://www.w3.org/1999/xlink"
  xml:space="preserve"
  style="fill-rule:evenodd;clip-rule:evenodd;stroke-linejoin:round;stroke-miterlimit:1.41421;">
  <g>
    <g id="Layer1">
      <rect
        x="-18.8696"
        y="-61.576"
        width="4032.67"
        height="2318.48"
        style="fill:#3c3836;"/>
      <path
        id="path2518"
        d="M1919.93,708.175C1886.83,789.325 1866.87,842.407 1830.02,921.146C1852.61,945.096 1880.34,972.987 1925.38,1004.49C1876.96,984.563 1843.93,964.558 1819.25,943.799C1772.08,1042.21 1698.19,1182.4 1548.24,1451.83C1666.1,1383.79 1757.46,1341.84 1842.6,1325.83C1838.94,1310.11 1836.87,1293.1 1837.01,1275.35L1837.15,1271.58C1839.02,1196.07 1878.3,1138.01 1924.82,1141.95C1971.35,1145.89 2007.52,1210.33 2005.65,1285.84C2005.3,1300.05 2003.7,1313.72 2000.9,1326.39C2085.11,1342.87 2175.5,1384.71 2291.76,1451.83C2268.83,1409.62 2248.37,1371.58 2228.83,1335.34C2198.05,1311.49 2165.95,1280.44 2100.46,1246.83C2145.47,1258.52 2177.7,1272.01 2202.82,1287.1C2004.15,917.205 1988.06,868.054 1919.93,708.175Z"
        style="fill:#458588;"/>
    </g>
  </g>
</svg>
